<?xml version="1.0" encoding="utf-8"?>
<!-- Generator: Adobe Illustrator 26.0.1, SVG Export Plug-In . SVG Version: 6.00 Build 0)  -->
<svg version="1.1" id="Layer_1" xmlns="http://www.w3.org/2000/svg" xmlns:xlink="http://www.w3.org/1999/xlink" x="0px" y="0px"
	 viewBox="0 0 300 56.58" style="enable-background:new 0 0 300 56.58;" xml:space="preserve">
<style type="text/css">
	.st0{fill-rule:evenodd;clip-rule:evenodd;fill:url(#SVGID_1_);}
	.st1{fill-rule:evenodd;clip-rule:evenodd;fill:url(#SVGID_00000178178349133111389270000016779859340292563103_);}
	.st2{fill-rule:evenodd;clip-rule:evenodd;fill:url(#SVGID_00000130636746176794671620000005572550955691708331_);}
	.st3{fill:url(#SVGID_00000075139817774421016950000017367083149600669331_);}
	.st4{fill:url(#SVGID_00000079481430258422981830000014314921945241069732_);}
	.st5{fill:url(#SVGID_00000095332954102467542790000016221775531689069744_);}
	.st6{fill:url(#SVGID_00000145776255543039161120000012174619827959224969_);}
	.st7{fill:url(#SVGID_00000158724145843218942620000000941921467682788270_);}
	.st8{fill:url(#SVGID_00000059996440307404723870000017119637886320625073_);}
	.st9{fill:url(#SVGID_00000150791319297110582390000004605667376284424601_);}
	.st10{fill:url(#SVGID_00000050621200697015207850000009823422167371354303_);}
	.st11{fill:url(#SVGID_00000093868260525335753480000012589618218071667854_);}
	.st12{fill:url(#SVGID_00000013170574277600756890000016986064073683590291_);}
	.st13{fill:url(#SVGID_00000062189188858575822490000010455753825166132649_);}
	.st14{fill:url(#SVGID_00000059282129310887851110000006307752516344227981_);}
	.st15{fill:url(#SVGID_00000157276818287118082110000002062466761200315288_);}
	.st16{fill:url(#SVGID_00000155127218970205428440000011945724577985626559_);}
	.st17{fill:url(#SVGID_00000038378186573335831930000007119108283020874909_);}
	.st18{fill:url(#SVGID_00000132086706021738183730000018041018041804009389_);}
	.st19{fill:url(#SVGID_00000162320195399280868880000004740094219275987128_);}
	.st20{fill:#197E80;}
	.st21{display:none;}
	.st22{display:inline;}
	.st23{fill:#B54D1F;}
	.st24{fill:url(#SVGID_00000173138700068089271110000001048095498030347398_);}
	.st25{fill:url(#SVGID_00000166637770880876288300000005836678430639372220_);}
	.st26{fill:url(#SVGID_00000168812760383575209970000010726445114630732990_);}
	.st27{fill:url(#SVGID_00000179645655904916563830000012505264919413586589_);}
	.st28{fill:url(#SVGID_00000051363850007586009170000005985052638026384546_);}
	.st29{fill:url(#SVGID_00000113317823753677162140000017559034547007603084_);}
	.st30{fill:url(#SVGID_00000121979165223939864030000016446030526252862350_);}
	.st31{fill:url(#SVGID_00000168830528373814364420000000326803499815581584_);}
	.st32{fill-rule:evenodd;clip-rule:evenodd;fill:url(#SVGID_00000036244424590526564900000016462815906298767805_);}
	.st33{fill-rule:evenodd;clip-rule:evenodd;fill:url(#SVGID_00000058585320753002581630000003914155535025064340_);}
	.st34{fill-rule:evenodd;clip-rule:evenodd;fill:url(#SVGID_00000142173871200285597620000014423967010168400818_);}
	.st35{fill:url(#SVGID_00000102514037127141498120000000958305160219314817_);}
	.st36{fill:url(#SVGID_00000095301864148344737630000010151156728874762680_);}
	.st37{fill:url(#SVGID_00000103240630724898940630000001738700759141395073_);}
	.st38{fill:url(#SVGID_00000095339212384924853790000013015965652782362522_);}
	.st39{fill:url(#SVGID_00000057136291464577106430000007210122267453117336_);}
	.st40{fill:url(#SVGID_00000119084941711750559940000000500408755557834652_);}
	.st41{fill:url(#SVGID_00000018942585733038734750000016023110295926565559_);}
	.st42{fill:url(#SVGID_00000080885026670044351500000007058563885025373603_);}
	.st43{fill:url(#SVGID_00000148649119065945050450000002471987308773018789_);}
	.st44{fill:url(#SVGID_00000008109727770329417710000009003358497227594668_);}
	.st45{fill:url(#SVGID_00000046315196639230429080000015289004215264995768_);}
	.st46{fill:url(#SVGID_00000156548563071641112490000014762069261868812936_);}
	.st47{fill:url(#SVGID_00000011734227954892603060000012486913506906495114_);}
	.st48{fill:url(#SVGID_00000156572255138502719810000004676919334303067281_);}
	.st49{fill:url(#SVGID_00000070832358893660651830000011144198509548306311_);}
	.st50{fill:url(#SVGID_00000159459653484186832070000004956018497269168270_);}
	.st51{fill:url(#SVGID_00000147215139128299947180000018132399727033001866_);}
</style>
<g>
	<g>
		<g id="s">
			
				<linearGradient id="SVGID_1_" gradientUnits="userSpaceOnUse" x1="-1142.6809" y1="581.29" x2="-1112.6287" y2="581.29" gradientTransform="matrix(-0.4968 -0.8679 0.8679 -0.4968 -1024.1188 -654.3735)">
				<stop  offset="0" style="stop-color:#01C496"/>
				<stop  offset="0" style="stop-color:#00C797"/>
				<stop  offset="0.4833" style="stop-color:#00C797"/>
				<stop  offset="0.5" style="stop-color:#00C797"/>
				<stop  offset="0.5078" style="stop-color:#00C797"/>
				<stop  offset="0.5117" style="stop-color:#00C697"/>
				<stop  offset="0.5195" style="stop-color:#01C396"/>
				<stop  offset="0.5195" style="stop-color:#01C396"/>
				<stop  offset="0.5234" style="stop-color:#02C195"/>
				<stop  offset="0.5273" style="stop-color:#03BF95"/>
				<stop  offset="0.5312" style="stop-color:#03BE94"/>
				<stop  offset="0.5352" style="stop-color:#04BC93"/>
				<stop  offset="0.5391" style="stop-color:#04BA93"/>
				<stop  offset="0.5391" style="stop-color:#04BA93"/>
				<stop  offset="0.543" style="stop-color:#05B892"/>
				<stop  offset="0.5469" style="stop-color:#06B792"/>
				<stop  offset="0.5508" style="stop-color:#06B591"/>
				<stop  offset="0.5547" style="stop-color:#07B391"/>
				<stop  offset="0.5586" style="stop-color:#07B290"/>
				<stop  offset="0.5586" style="stop-color:#07B290"/>
				<stop  offset="0.5625" style="stop-color:#08B090"/>
				<stop  offset="0.5664" style="stop-color:#08AE8F"/>
				<stop  offset="0.5703" style="stop-color:#09AD8F"/>
				<stop  offset="0.5742" style="stop-color:#0AAB8E"/>
				<stop  offset="0.5781" style="stop-color:#0AA98E"/>
				<stop  offset="0.582" style="stop-color:#0BA78D"/>
				<stop  offset="0.5898" style="stop-color:#0CA48C"/>
				<stop  offset="0.5938" style="stop-color:#0DA28B"/>
				<stop  offset="0.5977" style="stop-color:#0DA18B"/>
				<stop  offset="0.6016" style="stop-color:#0E9F8A"/>
				<stop  offset="0.6016" style="stop-color:#0E9F8A"/>
				<stop  offset="0.6094" style="stop-color:#0F9B89"/>
				<stop  offset="0.6133" style="stop-color:#0F9A89"/>
				<stop  offset="0.6172" style="stop-color:#109888"/>
				<stop  offset="0.625" style="stop-color:#119587"/>
				<stop  offset="0.6289" style="stop-color:#129387"/>
				<stop  offset="0.6328" style="stop-color:#129186"/>
				<stop  offset="0.6367" style="stop-color:#138F86"/>
				<stop  offset="0.6406" style="stop-color:#148E85"/>
				<stop  offset="0.6445" style="stop-color:#148C84"/>
				<stop  offset="0.6484" style="stop-color:#158A84"/>
				<stop  offset="0.6523" style="stop-color:#158983"/>
				<stop  offset="0.6562" style="stop-color:#168783"/>
				<stop  offset="0.6641" style="stop-color:#178382"/>
				<stop  offset="0.668" style="stop-color:#188281"/>
				<stop  offset="0.6719" style="stop-color:#188081"/>
				<stop  offset="0.6758" style="stop-color:#197F80"/>
				<stop  offset="0.6797" style="stop-color:#197E80"/>
				<stop  offset="0.6797" style="stop-color:#197E80"/>
				<stop  offset="0.6875" style="stop-color:#197E80"/>
				<stop  offset="1" style="stop-color:#197E80"/>
			</linearGradient>
			<path class="st0" d="M53.51,32.12l-13.76-0.04l2.88-4.93l8.05,0.03l-6.37-11.13l-0.7,1.19l-5.76,9.89l-2.88,4.93l-2.41,4.14
				l-3.08,5.88l4.78,0.02l20.25,0.06l4.74-0.04"/>
			
				<linearGradient id="SVGID_00000049215798975252537140000010297114905004855959_" gradientUnits="userSpaceOnUse" x1="-1110.3829" y1="637.222" x2="-1060.8107" y2="622.0809" gradientTransform="matrix(-0.5 -0.866 0.866 -0.5 -1054.6708 -582.187)">
				<stop  offset="5.586592e-03" style="stop-color:#FEBA00"/>
				<stop  offset="0.1439" style="stop-color:#FEA400"/>
				<stop  offset="0.3481" style="stop-color:#FF8900"/>
				<stop  offset="0.5571" style="stop-color:#FF7600"/>
				<stop  offset="0.7715" style="stop-color:#FF6B00"/>
				<stop  offset="1" style="stop-color:#FF6700"/>
			</linearGradient>
			<path style="fill-rule:evenodd;clip-rule:evenodd;fill:url(#SVGID_00000049215798975252537140000010297114905004855959_);" d="
				M54.3,42.16l2.62,4.5l-30.28,0.01l-5.73,9.91l46.67-0.02l-8.33-14.44"/>
		</g>
		
			<linearGradient id="SVGID_00000101809696558010427990000000443124973404818867_" gradientUnits="userSpaceOnUse" x1="-4.1186" y1="16.5933" x2="39.9385" y2="40.4236">
			<stop  offset="0.5" style="stop-color:#FEBA00"/>
			<stop  offset="0.5348" style="stop-color:#FEA400"/>
			<stop  offset="0.5861" style="stop-color:#FF8900"/>
			<stop  offset="0.6386" style="stop-color:#FF7600"/>
			<stop  offset="0.6926" style="stop-color:#FF6B00"/>
			<stop  offset="0.75" style="stop-color:#FF6700"/>
		</linearGradient>
		<path style="fill-rule:evenodd;clip-rule:evenodd;fill:url(#SVGID_00000101809696558010427990000000443124973404818867_);" d="
			M42.66,13.1l-0.69-1.17l-1.24-2.09l0.01-0.01L35.02,0L0,56.58c5.56,0,11.11,0,16.67,0c0.82-1.39,1.65-2.78,2.47-4.17
			c-1.75,0-3.49,0-5.24,0L23.99,36.4h4.79l3.84-6.28h-4.67L38.68,13.1H42.66z"/>
	</g>
	<g>
		
			<linearGradient id="SVGID_00000056387802100106762730000015889641347120088245_" gradientUnits="userSpaceOnUse" x1="75.1179" y1="19.8293" x2="84.1813" y2="19.8293">
			<stop  offset="0" style="stop-color:#FEBA00"/>
			<stop  offset="0.1391" style="stop-color:#FEA400"/>
			<stop  offset="0.3445" style="stop-color:#FF8900"/>
			<stop  offset="0.5546" style="stop-color:#FF7600"/>
			<stop  offset="0.7702" style="stop-color:#FF6B00"/>
			<stop  offset="1" style="stop-color:#FF6700"/>
		</linearGradient>
		<path style="fill:url(#SVGID_00000056387802100106762730000015889641347120088245_);" d="M75.58,25.64
			c-0.14,0-0.25-0.02-0.33-0.05c-0.08-0.04-0.12-0.09-0.12-0.16c0-0.15,0.17-0.26,0.51-0.33c0.43-0.09,0.75-0.23,0.94-0.4
			c0.19-0.17,0.29-0.46,0.29-0.87v-7.95c0-0.4-0.08-0.69-0.25-0.86c-0.16-0.18-0.46-0.3-0.9-0.39c-0.18-0.04-0.31-0.08-0.39-0.14
			c-0.08-0.06-0.12-0.13-0.12-0.21c0-0.07,0.04-0.13,0.12-0.17c0.08-0.04,0.19-0.06,0.33-0.06c0.39,0,0.74,0.01,1.05,0.02
			c0.31,0.01,0.62,0.02,0.92,0.04c0.3,0.01,0.62,0.02,0.98,0.02c0.47,0,0.96,0,1.49-0.01c0.52-0.01,0.99-0.01,1.42-0.03
			c0.4,0,0.73-0.01,0.99-0.03c0.26-0.02,0.42-0.03,0.47-0.03c0.07,0,0.14,0.01,0.22,0.04c0.08,0.03,0.12,0.09,0.13,0.17
			c0.06,0.36,0.12,0.72,0.18,1.06c0.06,0.35,0.1,0.65,0.1,0.91c0,0.12-0.03,0.2-0.08,0.24c-0.05,0.04-0.11,0.06-0.17,0.06
			c-0.06,0-0.11-0.02-0.14-0.05s-0.07-0.09-0.11-0.16c-0.08-0.23-0.16-0.45-0.23-0.64c-0.07-0.19-0.15-0.34-0.25-0.43
			c-0.15-0.16-0.33-0.29-0.53-0.37c-0.2-0.08-0.42-0.12-0.67-0.12h-1.97c-0.15,0-0.31,0.06-0.48,0.17
			c-0.17,0.11-0.26,0.27-0.26,0.47v3.59c0,0.12,0.04,0.21,0.11,0.28c0.07,0.07,0.15,0.11,0.25,0.11h1.67c0.34,0,0.57-0.08,0.7-0.23
			c0.13-0.15,0.23-0.39,0.32-0.7c0.08-0.23,0.19-0.35,0.33-0.35c0.06,0,0.11,0.03,0.16,0.08c0.05,0.05,0.07,0.13,0.07,0.24
			c0,0.07-0.01,0.19-0.02,0.35c-0.01,0.16-0.02,0.33-0.04,0.51c-0.01,0.18-0.02,0.32-0.02,0.42c0,0.13,0,0.28,0.01,0.47
			c0.01,0.18,0.01,0.36,0.03,0.54c0.01,0.18,0.02,0.31,0.02,0.39c0.01,0.11,0,0.19-0.03,0.26c-0.03,0.06-0.07,0.1-0.13,0.1
			c-0.19,0-0.33-0.17-0.42-0.51c-0.07-0.3-0.17-0.53-0.29-0.69c-0.12-0.15-0.3-0.23-0.54-0.23h-1.64c-0.19,0-0.33,0.03-0.41,0.09
			c-0.09,0.06-0.13,0.18-0.13,0.37v3.36c0,0.41,0.09,0.7,0.26,0.85c0.18,0.16,0.45,0.24,0.81,0.24h1.39c0.33,0,0.62-0.02,0.86-0.07
			c0.25-0.05,0.46-0.13,0.63-0.26c0.2-0.14,0.38-0.32,0.53-0.55c0.15-0.22,0.31-0.5,0.48-0.83c0.05-0.07,0.09-0.13,0.14-0.17
			c0.05-0.04,0.1-0.06,0.16-0.04c0.07,0,0.12,0.03,0.15,0.08c0.03,0.05,0.04,0.12,0.04,0.2c0,0.13-0.03,0.32-0.09,0.58
			s-0.13,0.53-0.22,0.81c-0.09,0.28-0.17,0.52-0.24,0.72c-0.04,0.08-0.08,0.15-0.12,0.2c-0.05,0.05-0.11,0.08-0.18,0.08
			c-0.42,0-0.86-0.01-1.32-0.02c-0.46-0.01-0.93-0.02-1.41-0.04c-0.48-0.01-0.96-0.02-1.44-0.04c-0.48-0.01-0.96-0.02-1.43-0.02
			c-0.25,0-0.48,0.01-0.7,0.03c-0.22,0.02-0.45,0.04-0.68,0.05C76.13,25.63,75.87,25.64,75.58,25.64z"/>
		
			<linearGradient id="SVGID_00000176031086309853986230000014436408857439700878_" gradientUnits="userSpaceOnUse" x1="86.1523" y1="19.9172" x2="98.2958" y2="19.9172">
			<stop  offset="0" style="stop-color:#FEBA00"/>
			<stop  offset="0.1391" style="stop-color:#FEA400"/>
			<stop  offset="0.3445" style="stop-color:#FF8900"/>
			<stop  offset="0.5546" style="stop-color:#FF7600"/>
			<stop  offset="0.7702" style="stop-color:#FF6B00"/>
			<stop  offset="1" style="stop-color:#FF6700"/>
		</linearGradient>
		<path style="fill:url(#SVGID_00000176031086309853986230000014436408857439700878_);" d="M91.94,25.8c-0.12,0-0.21-0.06-0.26-0.18
			c-0.06-0.15-0.13-0.35-0.22-0.6c-0.09-0.25-0.17-0.46-0.24-0.63l-3.29-8.48c-0.12-0.32-0.28-0.58-0.47-0.8
			c-0.2-0.22-0.46-0.37-0.77-0.45c-0.16-0.06-0.29-0.11-0.39-0.17c-0.09-0.05-0.14-0.13-0.14-0.22c0-0.08,0.04-0.14,0.13-0.17
			c0.09-0.03,0.2-0.04,0.33-0.04c0.21,0,0.44,0.01,0.7,0.02c0.25,0.01,0.52,0.02,0.8,0.03c0.28,0.01,0.55,0.01,0.81,0.01
			c0.23,0,0.48-0.01,0.75-0.02c0.26-0.01,0.52-0.02,0.77-0.03c0.25-0.01,0.45-0.01,0.62-0.01c0.13,0,0.24,0.02,0.34,0.05
			s0.15,0.09,0.15,0.16c0,0.09-0.05,0.17-0.15,0.24c-0.1,0.06-0.23,0.11-0.4,0.13c-0.34,0.05-0.61,0.12-0.81,0.23
			c-0.2,0.11-0.3,0.26-0.3,0.46c0,0.15,0.02,0.29,0.06,0.42c0.04,0.13,0.07,0.23,0.1,0.32l2.45,6.56c0.02,0.06,0.05,0.09,0.09,0.11
			c0.03,0.01,0.07-0.03,0.11-0.12l2.27-6c0.23-0.61,0.26-1.08,0.08-1.4c-0.18-0.32-0.48-0.51-0.91-0.55
			c-0.16-0.02-0.3-0.07-0.4-0.13c-0.11-0.06-0.16-0.14-0.16-0.24c0-0.07,0.05-0.12,0.15-0.16c0.1-0.04,0.22-0.05,0.36-0.05
			c0.19,0,0.37,0,0.55,0.01c0.18,0.01,0.36,0.01,0.55,0.02c0.19,0.01,0.4,0.01,0.63,0.01c0.34,0,0.69-0.01,1.05-0.04
			c0.36-0.02,0.67-0.04,0.92-0.04c0.15,0,0.28,0.01,0.38,0.04c0.1,0.03,0.15,0.09,0.15,0.18c0,0.08-0.05,0.15-0.15,0.2
			c-0.1,0.05-0.23,0.1-0.4,0.15c-0.41,0.09-0.75,0.28-1.03,0.57c-0.28,0.29-0.49,0.62-0.64,1.01L93,23.67
			c-0.08,0.19-0.17,0.4-0.26,0.63c-0.09,0.23-0.19,0.47-0.27,0.69c-0.09,0.23-0.18,0.44-0.27,0.63c-0.02,0.06-0.06,0.1-0.1,0.13
			C92.05,25.78,92,25.8,91.94,25.8z"/>
		
			<linearGradient id="SVGID_00000173119546066030374240000009437689837788151980_" gradientUnits="userSpaceOnUse" x1="100.3196" y1="19.8293" x2="109.383" y2="19.8293">
			<stop  offset="0" style="stop-color:#FEBA00"/>
			<stop  offset="0.1391" style="stop-color:#FEA400"/>
			<stop  offset="0.3445" style="stop-color:#FF8900"/>
			<stop  offset="0.5546" style="stop-color:#FF7600"/>
			<stop  offset="0.7702" style="stop-color:#FF6B00"/>
			<stop  offset="1" style="stop-color:#FF6700"/>
		</linearGradient>
		<path style="fill:url(#SVGID_00000173119546066030374240000009437689837788151980_);" d="M100.78,25.64
			c-0.14,0-0.25-0.02-0.33-0.05c-0.08-0.04-0.12-0.09-0.12-0.16c0-0.15,0.17-0.26,0.51-0.33c0.43-0.09,0.75-0.23,0.94-0.4
			c0.19-0.17,0.29-0.46,0.29-0.87v-7.95c0-0.4-0.08-0.69-0.25-0.86c-0.16-0.18-0.46-0.3-0.9-0.39c-0.18-0.04-0.31-0.08-0.39-0.14
			c-0.08-0.06-0.12-0.13-0.12-0.21c0-0.07,0.04-0.13,0.12-0.17c0.08-0.04,0.19-0.06,0.33-0.06c0.39,0,0.74,0.01,1.05,0.02
			c0.31,0.01,0.62,0.02,0.92,0.04c0.3,0.01,0.62,0.02,0.98,0.02c0.47,0,0.96,0,1.49-0.01c0.52-0.01,0.99-0.01,1.42-0.03
			c0.4,0,0.73-0.01,0.99-0.03c0.26-0.02,0.42-0.03,0.47-0.03c0.07,0,0.14,0.01,0.22,0.04c0.08,0.03,0.12,0.09,0.13,0.17
			c0.06,0.36,0.12,0.72,0.18,1.06c0.06,0.35,0.1,0.65,0.1,0.91c0,0.12-0.03,0.2-0.08,0.24c-0.05,0.04-0.11,0.06-0.17,0.06
			c-0.06,0-0.11-0.02-0.14-0.05s-0.07-0.09-0.11-0.16c-0.08-0.23-0.16-0.45-0.23-0.64c-0.07-0.19-0.15-0.34-0.25-0.43
			c-0.15-0.16-0.33-0.29-0.53-0.37c-0.2-0.08-0.42-0.12-0.67-0.12h-1.97c-0.15,0-0.31,0.06-0.48,0.17
			c-0.17,0.11-0.26,0.27-0.26,0.47v3.59c0,0.12,0.04,0.21,0.11,0.28c0.07,0.07,0.15,0.11,0.25,0.11h1.67c0.34,0,0.57-0.08,0.7-0.23
			c0.13-0.15,0.23-0.39,0.32-0.7c0.08-0.23,0.19-0.35,0.33-0.35c0.06,0,0.11,0.03,0.16,0.08c0.05,0.05,0.07,0.13,0.07,0.24
			c0,0.07-0.01,0.19-0.02,0.35c-0.01,0.16-0.02,0.33-0.04,0.51c-0.01,0.18-0.02,0.32-0.02,0.42c0,0.13,0,0.28,0.01,0.47
			c0.01,0.18,0.01,0.36,0.03,0.54c0.01,0.18,0.02,0.31,0.02,0.39c0.01,0.11,0,0.19-0.03,0.26c-0.03,0.06-0.07,0.1-0.13,0.1
			c-0.19,0-0.33-0.17-0.42-0.51c-0.07-0.3-0.17-0.53-0.29-0.69c-0.12-0.15-0.3-0.23-0.54-0.23h-1.64c-0.19,0-0.33,0.03-0.41,0.09
			c-0.09,0.06-0.13,0.18-0.13,0.37v3.36c0,0.41,0.09,0.7,0.26,0.85c0.18,0.16,0.45,0.24,0.81,0.24h1.39c0.33,0,0.62-0.02,0.86-0.07
			c0.25-0.05,0.46-0.13,0.63-0.26c0.2-0.14,0.38-0.32,0.53-0.55c0.15-0.22,0.31-0.5,0.48-0.83c0.05-0.07,0.09-0.13,0.14-0.17
			c0.05-0.04,0.1-0.06,0.16-0.04c0.07,0,0.12,0.03,0.15,0.08c0.03,0.05,0.04,0.12,0.04,0.2c0,0.13-0.03,0.32-0.09,0.58
			s-0.13,0.53-0.22,0.81c-0.09,0.28-0.17,0.52-0.24,0.72c-0.04,0.08-0.08,0.15-0.12,0.2c-0.05,0.05-0.11,0.08-0.18,0.08
			c-0.42,0-0.86-0.01-1.32-0.02c-0.46-0.01-0.93-0.02-1.41-0.04c-0.48-0.01-0.96-0.02-1.44-0.04c-0.48-0.01-0.96-0.02-1.43-0.02
			c-0.25,0-0.48,0.01-0.7,0.03c-0.22,0.02-0.45,0.04-0.68,0.05C101.33,25.63,101.07,25.64,100.78,25.64z"/>
		
			<linearGradient id="SVGID_00000026149175876649043280000017597510201333710992_" gradientUnits="userSpaceOnUse" x1="111.5476" y1="19.9172" x2="125.2222" y2="19.9172">
			<stop  offset="0" style="stop-color:#FEBA00"/>
			<stop  offset="0.1391" style="stop-color:#FEA400"/>
			<stop  offset="0.3445" style="stop-color:#FF8900"/>
			<stop  offset="0.5546" style="stop-color:#FF7600"/>
			<stop  offset="0.7702" style="stop-color:#FF6B00"/>
			<stop  offset="1" style="stop-color:#FF6700"/>
		</linearGradient>
		<path style="fill:url(#SVGID_00000026149175876649043280000017597510201333710992_);" d="M123.18,25.87
			c-0.12,0-0.34-0.09-0.66-0.27c-0.32-0.18-0.64-0.48-0.94-0.89c-0.13-0.14-0.33-0.37-0.59-0.68c-0.26-0.31-0.57-0.67-0.93-1.08
			c-0.36-0.41-0.74-0.85-1.14-1.32c-0.4-0.47-0.81-0.94-1.21-1.4c-0.4-0.46-0.79-0.9-1.14-1.31c-0.36-0.41-0.67-0.77-0.95-1.09
			c-0.28-0.32-0.48-0.55-0.62-0.69c-0.06-0.08-0.11-0.15-0.17-0.19c-0.05-0.05-0.1-0.07-0.15-0.07c-0.05,0-0.08,0.04-0.11,0.13
			c-0.02,0.09-0.04,0.17-0.04,0.24c-0.01,0.56-0.02,1.21-0.02,1.95c0,0.74,0,1.5-0.01,2.28c-0.01,0.78-0.01,1.51-0.01,2.19
			c0,0.34,0.09,0.64,0.28,0.89c0.19,0.25,0.5,0.43,0.95,0.52c0.16,0.04,0.3,0.08,0.4,0.12c0.1,0.05,0.15,0.12,0.15,0.21
			c0,0.07-0.05,0.12-0.14,0.16c-0.09,0.04-0.21,0.05-0.35,0.05c-0.32,0-0.56-0.01-0.73-0.03c-0.17-0.02-0.33-0.03-0.47-0.04
			c-0.14-0.01-0.33-0.01-0.56-0.01c-0.22,0-0.41,0.01-0.57,0.02c-0.16,0.01-0.31,0.02-0.47,0.04c-0.15,0.01-0.34,0.02-0.56,0.02
			c-0.13,0-0.24-0.01-0.34-0.04c-0.1-0.03-0.15-0.09-0.15-0.17c0-0.08,0.05-0.15,0.14-0.2c0.09-0.05,0.23-0.1,0.4-0.15
			c0.32-0.09,0.55-0.27,0.7-0.52c0.15-0.25,0.24-0.55,0.26-0.91c0.05-0.45,0.1-1.03,0.15-1.76c0.05-0.73,0.1-1.54,0.13-2.45
			s0.05-1.84,0.05-2.8c0-0.62-0.16-1.07-0.48-1.34c-0.32-0.27-0.72-0.49-1.21-0.65c-0.06-0.02-0.16-0.07-0.31-0.14
			c-0.15-0.07-0.22-0.16-0.22-0.26c0-0.11,0.05-0.18,0.16-0.21c0.11-0.04,0.19-0.05,0.26-0.05c0.31,0.01,0.57,0.02,0.8,0.03
			c0.23,0.01,0.45,0.01,0.66,0.03c0.21,0.01,0.43,0.02,0.67,0.03c0.23,0.01,0.51,0.01,0.83,0.01c0.11,0,0.19,0.03,0.25,0.08
			c0.06,0.05,0.11,0.11,0.16,0.18c0.13,0.15,0.33,0.39,0.61,0.72c0.28,0.33,0.6,0.72,0.97,1.16c0.37,0.45,0.77,0.92,1.19,1.42
			c0.42,0.5,0.84,1,1.27,1.5c0.42,0.5,0.82,0.98,1.2,1.43c0.38,0.45,0.7,0.83,0.98,1.15c0.28,0.32,0.47,0.55,0.59,0.7
			c0.05,0.05,0.11,0.11,0.18,0.19c0.08,0.08,0.14,0.12,0.2,0.12c0.11,0,0.16-0.11,0.18-0.33c0-0.23,0-0.59,0-1.06
			c0-0.47,0-1.01,0.01-1.64c0.01-0.62,0.01-1.28,0.01-1.96c0-0.69-0.01-1.37-0.02-2.05c-0.01-0.26-0.13-0.48-0.37-0.66
			c-0.23-0.18-0.49-0.3-0.76-0.36c-0.16-0.02-0.32-0.06-0.46-0.12c-0.14-0.06-0.21-0.13-0.21-0.23c0-0.07,0.07-0.12,0.21-0.16
			c0.14-0.04,0.28-0.05,0.4-0.05c0.18,0,0.33,0,0.47,0c0.13,0,0.27,0,0.4,0s0.26,0,0.39,0c0.27,0,0.49,0,0.65-0.01
			s0.34-0.01,0.54-0.03c0.19-0.01,0.46-0.02,0.8-0.02c0.14,0,0.26,0.02,0.34,0.05c0.09,0.04,0.13,0.09,0.13,0.18
			c0,0.16-0.18,0.28-0.55,0.35c-0.42,0.08-0.71,0.19-0.86,0.33c-0.15,0.14-0.23,0.36-0.25,0.66c0,0.19-0.01,0.5-0.02,0.92
			c-0.01,0.43-0.02,0.93-0.03,1.5c-0.01,0.57-0.01,1.18-0.03,1.81c-0.01,0.63-0.02,1.26-0.02,1.87c0,0.61,0,1.16,0,1.65
			c0,0.28,0.01,0.55,0.04,0.82c0.02,0.26,0.04,0.49,0.06,0.69c0.02,0.19,0.03,0.34,0.03,0.43c0,0.22-0.04,0.37-0.12,0.45
			C123.4,25.83,123.3,25.87,123.18,25.87z"/>
		
			<linearGradient id="SVGID_00000011713356561417033290000003434376594577464511_" gradientUnits="userSpaceOnUse" x1="127.4043" y1="19.4597" x2="138.9317" y2="19.4597">
			<stop  offset="0" style="stop-color:#FEBA00"/>
			<stop  offset="0.1391" style="stop-color:#FEA400"/>
			<stop  offset="0.3445" style="stop-color:#FF8900"/>
			<stop  offset="0.5546" style="stop-color:#FF7600"/>
			<stop  offset="0.7702" style="stop-color:#FF6B00"/>
			<stop  offset="1" style="stop-color:#FF6700"/>
		</linearGradient>
		<path style="fill:url(#SVGID_00000011713356561417033290000003434376594577464511_);" d="M130.7,25.62
			c-0.13,0-0.24-0.01-0.33-0.04c-0.09-0.03-0.14-0.09-0.14-0.17c0-0.08,0.05-0.15,0.14-0.2c0.09-0.05,0.22-0.1,0.39-0.13
			c0.45-0.08,0.78-0.22,1-0.4c0.22-0.19,0.33-0.49,0.33-0.9V16.8c0-0.52-0.01-0.91-0.04-1.17c-0.02-0.26-0.06-0.45-0.11-0.55
			c-0.05-0.1-0.11-0.16-0.19-0.18c-0.14-0.04-0.3-0.06-0.48-0.06c-0.18-0.01-0.38-0.01-0.62-0.01h-0.69c-0.31,0-0.61,0.07-0.91,0.2
			c-0.3,0.14-0.53,0.33-0.68,0.57c-0.05,0.07-0.11,0.17-0.2,0.29c-0.09,0.12-0.18,0.23-0.29,0.32c-0.11,0.09-0.21,0.13-0.32,0.13
			c-0.06,0-0.1-0.02-0.13-0.07c-0.03-0.05-0.04-0.11-0.04-0.18c0-0.13,0.03-0.26,0.11-0.39c0.19-0.38,0.32-0.7,0.4-0.99
			c0.08-0.28,0.15-0.62,0.19-1c0.02-0.19,0.07-0.31,0.14-0.35c0.07-0.05,0.14-0.07,0.21-0.07c0.06,0,0.14,0.07,0.24,0.22
			s0.18,0.27,0.24,0.36c0.09,0.11,0.27,0.19,0.53,0.25c0.26,0.06,0.5,0.09,0.72,0.09l6.35-0.02c0.36,0,0.67-0.02,0.91-0.07
			c0.24-0.05,0.44-0.11,0.59-0.18c0.16-0.08,0.29-0.17,0.39-0.27c0.09-0.1,0.22-0.15,0.37-0.15c0.05,0,0.08,0.04,0.11,0.11
			c0.02,0.08,0.04,0.16,0.04,0.25c0,0.05-0.01,0.12-0.02,0.21s-0.02,0.17-0.04,0.23c-0.05,0.22-0.09,0.4-0.13,0.53
			c-0.04,0.13-0.07,0.25-0.09,0.36c-0.02,0.11-0.03,0.26-0.03,0.43v0.25c0,0.14-0.02,0.28-0.07,0.4c-0.05,0.13-0.12,0.19-0.21,0.19
			c-0.09,0-0.17-0.06-0.23-0.19c-0.06-0.12-0.12-0.3-0.18-0.54c-0.07-0.31-0.23-0.54-0.47-0.7c-0.24-0.16-0.64-0.25-1.19-0.25h-1.48
			c-0.23,0-0.42,0.04-0.55,0.11c-0.13,0.08-0.21,0.25-0.26,0.53c-0.04,0.28-0.06,0.72-0.06,1.33v6.97c0,0.4,0.11,0.69,0.34,0.88
			c0.23,0.19,0.57,0.33,1.01,0.42c0.16,0.04,0.29,0.08,0.38,0.12c0.09,0.05,0.13,0.12,0.13,0.21c0,0.07-0.04,0.12-0.12,0.16
			c-0.08,0.04-0.19,0.05-0.33,0.05c-0.29,0-0.56-0.01-0.81-0.03c-0.25-0.02-0.49-0.03-0.72-0.04c-0.23-0.01-0.48-0.02-0.74-0.02
			c-0.28,0-0.55,0.01-0.79,0.02c-0.25,0.01-0.5,0.03-0.76,0.04C131.28,25.61,131,25.62,130.7,25.62z"/>
		
			<linearGradient id="SVGID_00000122682948029210439770000002388541101329395377_" gradientUnits="userSpaceOnUse" x1="145.7952" y1="19.578" x2="158.3083" y2="19.578">
			<stop  offset="0" style="stop-color:#FEBA00"/>
			<stop  offset="0.1391" style="stop-color:#FEA400"/>
			<stop  offset="0.3445" style="stop-color:#FF8900"/>
			<stop  offset="0.5546" style="stop-color:#FF7600"/>
			<stop  offset="0.7702" style="stop-color:#FF6B00"/>
			<stop  offset="1" style="stop-color:#FF6700"/>
		</linearGradient>
		<path style="fill:url(#SVGID_00000122682948029210439770000002388541101329395377_);" d="M146.29,25.64
			c-0.14,0-0.26-0.02-0.35-0.06c-0.09-0.04-0.14-0.1-0.14-0.18c0-0.09,0.05-0.17,0.14-0.23c0.09-0.06,0.22-0.12,0.39-0.18
			c0.32-0.09,0.6-0.23,0.86-0.42c0.26-0.19,0.47-0.48,0.63-0.86c0.32-0.72,0.61-1.4,0.88-2.05c0.27-0.65,0.53-1.29,0.77-1.93
			c0.25-0.63,0.5-1.29,0.76-1.96c0.26-0.67,0.52-1.39,0.79-2.16c0.11-0.27,0.18-0.5,0.23-0.68c0.05-0.18,0.08-0.34,0.09-0.48
			c0.15-0.04,0.29-0.07,0.42-0.11c0.13-0.04,0.27-0.1,0.42-0.18c0.14-0.07,0.25-0.17,0.33-0.31c0.08-0.13,0.14-0.23,0.18-0.29
			c0.02-0.01,0.05-0.02,0.08-0.03c0.03-0.01,0.06,0.01,0.08,0.06c0.04,0.06,0.06,0.12,0.08,0.19c0.02,0.07,0.04,0.15,0.06,0.23
			c0.27,0.86,0.55,1.73,0.84,2.61c0.29,0.89,0.57,1.75,0.85,2.6c0.28,0.84,0.55,1.63,0.79,2.35c0.25,0.72,0.46,1.35,0.63,1.89
			c0.13,0.39,0.28,0.68,0.46,0.89c0.18,0.21,0.36,0.36,0.56,0.46c0.2,0.1,0.42,0.17,0.65,0.22c0.18,0.03,0.31,0.09,0.4,0.16
			c0.09,0.07,0.13,0.15,0.13,0.25c0,0.07-0.04,0.12-0.13,0.15c-0.09,0.03-0.2,0.04-0.33,0.04c-0.19,0-0.43-0.01-0.74-0.03
			c-0.31-0.02-0.62-0.03-0.95-0.04c-0.33-0.01-0.63-0.02-0.9-0.02c-0.22,0-0.47,0-0.74,0c-0.27,0-0.53,0.01-0.77,0.02
			c-0.24,0.01-0.45,0.02-0.62,0.02c-0.14,0-0.26-0.02-0.34-0.06c-0.09-0.04-0.13-0.1-0.13-0.17c0-0.09,0.05-0.17,0.16-0.23
			c0.11-0.06,0.23-0.1,0.37-0.12c0.4-0.07,0.69-0.18,0.87-0.32c0.18-0.14,0.26-0.33,0.22-0.56c-0.01-0.2-0.05-0.45-0.12-0.75
			c-0.07-0.3-0.15-0.62-0.25-0.95c-0.09-0.33-0.18-0.64-0.26-0.92c-0.02-0.09-0.06-0.15-0.12-0.18c-0.06-0.02-0.16-0.04-0.3-0.04
			h-3.26c-0.06,0-0.11,0.02-0.16,0.06c-0.05,0.04-0.09,0.12-0.14,0.24c-0.03,0.14-0.09,0.32-0.17,0.54
			c-0.08,0.22-0.15,0.45-0.22,0.69c-0.07,0.24-0.13,0.46-0.18,0.67c-0.05,0.21-0.09,0.35-0.1,0.45c-0.04,0.29,0.04,0.53,0.22,0.7
			c0.18,0.17,0.45,0.3,0.82,0.4c0.35,0.09,0.53,0.21,0.53,0.35c0,0.08-0.04,0.14-0.13,0.17c-0.09,0.03-0.2,0.04-0.34,0.04
			c-0.22,0-0.48-0.01-0.77-0.02c-0.29-0.01-0.6-0.02-0.93-0.02c-0.38,0-0.74,0.02-1.09,0.05S146.6,25.64,146.29,25.64z
			 M150.46,20.55h2.57c0.16,0,0.25-0.03,0.25-0.09c0-0.04,0-0.06-0.01-0.09c-0.01-0.02-0.01-0.06-0.03-0.11l-1.3-4.17
			c-0.06-0.19-0.11-0.28-0.14-0.28c-0.02,0-0.06,0.09-0.12,0.26l-1.53,4.19c-0.02,0.07-0.04,0.12-0.04,0.14
			c0,0.06,0.03,0.1,0.1,0.11C150.27,20.54,150.35,20.55,150.46,20.55z"/>
		
			<linearGradient id="SVGID_00000170270142180220224920000005314892234411842207_" gradientUnits="userSpaceOnUse" x1="160.1559" y1="19.838" x2="169.8706" y2="19.838">
			<stop  offset="0" style="stop-color:#FEBA00"/>
			<stop  offset="0.1391" style="stop-color:#FEA400"/>
			<stop  offset="0.3445" style="stop-color:#FF8900"/>
			<stop  offset="0.5546" style="stop-color:#FF7600"/>
			<stop  offset="0.7702" style="stop-color:#FF6B00"/>
			<stop  offset="1" style="stop-color:#FF6700"/>
		</linearGradient>
		<path style="fill:url(#SVGID_00000170270142180220224920000005314892234411842207_);" d="M160.6,25.64
			c-0.13,0-0.23-0.02-0.32-0.07c-0.08-0.05-0.12-0.1-0.12-0.16c0-0.09,0.05-0.17,0.14-0.22c0.09-0.05,0.17-0.08,0.23-0.1
			c0.45-0.11,0.78-0.24,0.99-0.4c0.22-0.16,0.33-0.44,0.33-0.83v-8.11c0-0.28-0.03-0.49-0.09-0.62c-0.06-0.13-0.17-0.24-0.33-0.31
			c-0.16-0.07-0.38-0.13-0.68-0.19c-0.34-0.07-0.51-0.19-0.51-0.35c0-0.08,0.04-0.14,0.13-0.18s0.2-0.05,0.33-0.05
			c0.29,0,0.56,0.01,0.79,0.02c0.23,0.01,0.46,0.02,0.67,0.04c0.21,0.01,0.45,0.02,0.7,0.02c0.27,0,0.53,0,0.77-0.01
			c0.25-0.01,0.5-0.01,0.76-0.03c0.26-0.01,0.53-0.02,0.83-0.02c0.14,0,0.25,0.01,0.33,0.04c0.08,0.03,0.11,0.09,0.11,0.17
			c0,0.09-0.04,0.17-0.12,0.22c-0.08,0.05-0.21,0.1-0.39,0.13c-0.45,0.11-0.8,0.22-1.06,0.34c-0.26,0.12-0.39,0.35-0.39,0.69v8.15
			c0,0.36,0.08,0.62,0.24,0.78c0.16,0.16,0.48,0.24,0.98,0.24h2.04c0.31,0,0.57-0.05,0.8-0.14c0.23-0.09,0.41-0.2,0.54-0.32
			c0.22-0.2,0.4-0.39,0.52-0.57c0.12-0.18,0.26-0.43,0.4-0.73c0.06-0.13,0.12-0.25,0.19-0.37c0.07-0.12,0.15-0.18,0.23-0.18
			c0.08,0,0.14,0.04,0.18,0.11c0.03,0.08,0.05,0.15,0.05,0.22c0,0.02-0.01,0.05-0.02,0.09c-0.01,0.04-0.02,0.07-0.02,0.11
			c-0.08,0.32-0.16,0.6-0.23,0.84c-0.07,0.25-0.13,0.48-0.17,0.7c-0.04,0.22-0.07,0.46-0.1,0.72c-0.01,0.08-0.04,0.16-0.07,0.22
			c-0.04,0.06-0.1,0.1-0.19,0.1c-0.46,0-0.94-0.01-1.46-0.02c-0.52-0.01-1.04-0.02-1.57-0.03c-0.53-0.01-1.05-0.01-1.56-0.03
			c-0.51-0.01-1-0.02-1.47-0.02c-0.28,0-0.6,0.01-0.94,0.02c-0.35,0.01-0.66,0.03-0.95,0.04C160.85,25.63,160.67,25.64,160.6,25.64z
			"/>
		
			<linearGradient id="SVGID_00000154415291975676543920000014574948653067018115_" gradientUnits="userSpaceOnUse" x1="172.0353" y1="19.838" x2="181.7501" y2="19.838">
			<stop  offset="0" style="stop-color:#FEBA00"/>
			<stop  offset="0.1391" style="stop-color:#FEA400"/>
			<stop  offset="0.3445" style="stop-color:#FF8900"/>
			<stop  offset="0.5546" style="stop-color:#FF7600"/>
			<stop  offset="0.7702" style="stop-color:#FF6B00"/>
			<stop  offset="1" style="stop-color:#FF6700"/>
		</linearGradient>
		<path style="fill:url(#SVGID_00000154415291975676543920000014574948653067018115_);" d="M172.48,25.64
			c-0.13,0-0.23-0.02-0.32-0.07c-0.08-0.05-0.12-0.1-0.12-0.16c0-0.09,0.05-0.17,0.14-0.22c0.09-0.05,0.17-0.08,0.23-0.1
			c0.45-0.11,0.78-0.24,0.99-0.4c0.22-0.16,0.33-0.44,0.33-0.83v-8.11c0-0.28-0.03-0.49-0.09-0.62s-0.17-0.24-0.33-0.31
			c-0.16-0.07-0.38-0.13-0.68-0.19c-0.34-0.07-0.51-0.19-0.51-0.35c0-0.08,0.04-0.14,0.13-0.18c0.09-0.04,0.2-0.05,0.33-0.05
			c0.29,0,0.56,0.01,0.79,0.02c0.23,0.01,0.46,0.02,0.67,0.04c0.21,0.01,0.45,0.02,0.7,0.02c0.27,0,0.53,0,0.77-0.01
			c0.25-0.01,0.5-0.01,0.76-0.03c0.26-0.01,0.53-0.02,0.83-0.02c0.14,0,0.25,0.01,0.33,0.04c0.08,0.03,0.11,0.09,0.11,0.17
			c0,0.09-0.04,0.17-0.12,0.22c-0.08,0.05-0.21,0.1-0.39,0.13c-0.45,0.11-0.8,0.22-1.06,0.34c-0.26,0.12-0.39,0.35-0.39,0.69v8.15
			c0,0.36,0.08,0.62,0.24,0.78c0.16,0.16,0.48,0.24,0.98,0.24h2.04c0.31,0,0.57-0.05,0.8-0.14c0.23-0.09,0.41-0.2,0.54-0.32
			c0.22-0.2,0.4-0.39,0.52-0.57c0.12-0.18,0.26-0.43,0.4-0.73c0.06-0.13,0.12-0.25,0.19-0.37c0.07-0.12,0.15-0.18,0.23-0.18
			c0.08,0,0.14,0.04,0.18,0.11c0.03,0.08,0.05,0.15,0.05,0.22c0,0.02-0.01,0.05-0.02,0.09c-0.01,0.04-0.02,0.07-0.02,0.11
			c-0.08,0.32-0.16,0.6-0.23,0.84c-0.07,0.25-0.13,0.48-0.17,0.7c-0.04,0.22-0.07,0.46-0.1,0.72c-0.01,0.08-0.04,0.16-0.07,0.22
			c-0.04,0.06-0.1,0.1-0.19,0.1c-0.46,0-0.94-0.01-1.46-0.02c-0.52-0.01-1.04-0.02-1.57-0.03c-0.53-0.01-1.05-0.01-1.56-0.03
			c-0.51-0.01-1-0.02-1.47-0.02c-0.28,0-0.6,0.01-0.94,0.02c-0.35,0.01-0.66,0.03-0.95,0.04C172.72,25.63,172.55,25.64,172.48,25.64
			z"/>
		
			<linearGradient id="SVGID_00000018228284901371864710000003537494267234338734_" gradientUnits="userSpaceOnUse" x1="189.4056" y1="19.838" x2="196.4452" y2="19.838">
			<stop  offset="0" style="stop-color:#FEBA00"/>
			<stop  offset="0.1391" style="stop-color:#FEA400"/>
			<stop  offset="0.3445" style="stop-color:#FF8900"/>
			<stop  offset="0.5546" style="stop-color:#FF7600"/>
			<stop  offset="0.7702" style="stop-color:#FF6B00"/>
			<stop  offset="1" style="stop-color:#FF6700"/>
		</linearGradient>
		<path style="fill:url(#SVGID_00000018228284901371864710000003537494267234338734_);" d="M192.49,25.81
			c-0.49,0-0.96-0.07-1.39-0.2c-0.43-0.13-0.83-0.34-1.2-0.61c-0.05-0.05-0.1-0.1-0.15-0.17c-0.05-0.06-0.09-0.13-0.11-0.2
			c-0.08-0.27-0.14-0.61-0.17-1.01c-0.03-0.4-0.05-0.77-0.06-1.08c0-0.08,0.04-0.14,0.11-0.19c0.07-0.04,0.15-0.06,0.25-0.06
			c0.08,0,0.15,0.01,0.2,0.04c0.05,0.03,0.09,0.09,0.11,0.17c0.25,0.89,0.61,1.56,1.09,2c0.48,0.44,1,0.66,1.57,0.66
			c0.4,0,0.74-0.09,1.03-0.26c0.29-0.18,0.51-0.41,0.68-0.71c0.16-0.3,0.25-0.64,0.25-1.01c0-0.45-0.08-0.81-0.23-1.09
			c-0.15-0.28-0.38-0.53-0.67-0.76c-0.29-0.22-0.66-0.46-1.09-0.72c-0.47-0.28-0.93-0.57-1.38-0.88c-0.45-0.31-0.82-0.66-1.12-1.07
			c-0.29-0.41-0.44-0.92-0.44-1.51c0-0.63,0.15-1.19,0.45-1.68c0.3-0.49,0.74-0.87,1.31-1.16c0.57-0.29,1.27-0.43,2.08-0.43
			c0.42,0,0.81,0.04,1.15,0.13c0.35,0.09,0.62,0.18,0.84,0.27c0.11,0.04,0.19,0.09,0.26,0.18c0.06,0.08,0.11,0.18,0.15,0.3
			c0.06,0.25,0.12,0.53,0.19,0.86c0.07,0.33,0.11,0.66,0.11,1c0,0.13-0.09,0.19-0.28,0.19c-0.11,0-0.21-0.02-0.3-0.07
			c-0.09-0.05-0.15-0.11-0.18-0.18c-0.23-0.66-0.53-1.16-0.87-1.5c-0.35-0.34-0.78-0.51-1.31-0.51c-0.35,0-0.67,0.06-0.96,0.18
			c-0.29,0.12-0.52,0.32-0.69,0.6c-0.17,0.28-0.26,0.64-0.26,1.08c0,0.32,0.11,0.61,0.33,0.89c0.22,0.28,0.51,0.54,0.88,0.79
			c0.37,0.25,0.78,0.51,1.24,0.78c0.48,0.29,0.92,0.6,1.3,0.92c0.39,0.32,0.69,0.68,0.92,1.08c0.22,0.41,0.33,0.89,0.33,1.45
			c0,0.74-0.16,1.37-0.49,1.89c-0.33,0.52-0.79,0.92-1.38,1.19C193.98,25.68,193.28,25.81,192.49,25.81z"/>
		
			<linearGradient id="SVGID_00000019649982967116049700000002648955270717935797_" gradientUnits="userSpaceOnUse" x1="199.4369" y1="19.8293" x2="211.4747" y2="19.8293">
			<stop  offset="0" style="stop-color:#FEBA00"/>
			<stop  offset="0.1391" style="stop-color:#FEA400"/>
			<stop  offset="0.3445" style="stop-color:#FF8900"/>
			<stop  offset="0.5546" style="stop-color:#FF7600"/>
			<stop  offset="0.7702" style="stop-color:#FF6B00"/>
			<stop  offset="1" style="stop-color:#FF6700"/>
		</linearGradient>
		<path style="fill:url(#SVGID_00000019649982967116049700000002648955270717935797_);" d="M205.37,25.8
			c-0.79,0-1.53-0.14-2.24-0.41c-0.71-0.28-1.34-0.67-1.89-1.18c-0.55-0.51-0.99-1.12-1.31-1.83c-0.32-0.71-0.48-1.5-0.48-2.37
			c0-0.8,0.13-1.56,0.4-2.3c0.26-0.73,0.65-1.39,1.16-1.96c0.51-0.57,1.15-1.03,1.91-1.37c0.76-0.34,1.64-0.51,2.62-0.51
			c0.8,0,1.55,0.14,2.26,0.41c0.71,0.28,1.34,0.67,1.89,1.18c0.55,0.51,0.99,1.12,1.31,1.83c0.32,0.71,0.48,1.5,0.48,2.37
			c0,0.79-0.13,1.55-0.4,2.29c-0.26,0.74-0.65,1.4-1.16,1.97c-0.51,0.57-1.15,1.03-1.91,1.37C207.24,25.63,206.36,25.8,205.37,25.8z
			 M205.65,25.06c0.82,0,1.5-0.19,2.05-0.57c0.55-0.38,0.96-0.91,1.23-1.59c0.28-0.68,0.41-1.47,0.41-2.36
			c0-0.79-0.09-1.53-0.26-2.24c-0.17-0.7-0.43-1.33-0.77-1.89c-0.34-0.56-0.77-0.99-1.28-1.3c-0.52-0.31-1.12-0.47-1.81-0.47
			c-0.8,0-1.47,0.19-2.02,0.56c-0.55,0.38-0.96,0.9-1.23,1.57c-0.28,0.67-0.41,1.45-0.41,2.34c0,0.8,0.08,1.55,0.25,2.25
			c0.16,0.7,0.42,1.33,0.76,1.89c0.34,0.56,0.77,1,1.28,1.32C204.36,24.9,204.96,25.06,205.65,25.06z"/>
		
			<linearGradient id="SVGID_00000138547558237420388910000001794765926480692140_" gradientUnits="userSpaceOnUse" x1="214.1848" y1="19.838" x2="223.8995" y2="19.838">
			<stop  offset="0" style="stop-color:#FEBA00"/>
			<stop  offset="0.1391" style="stop-color:#FEA400"/>
			<stop  offset="0.3445" style="stop-color:#FF8900"/>
			<stop  offset="0.5546" style="stop-color:#FF7600"/>
			<stop  offset="0.7702" style="stop-color:#FF6B00"/>
			<stop  offset="1" style="stop-color:#FF6700"/>
		</linearGradient>
		<path style="fill:url(#SVGID_00000138547558237420388910000001794765926480692140_);" d="M214.62,25.64
			c-0.13,0-0.23-0.02-0.32-0.07c-0.08-0.05-0.12-0.1-0.12-0.16c0-0.09,0.05-0.17,0.14-0.22c0.09-0.05,0.17-0.08,0.23-0.1
			c0.45-0.11,0.78-0.24,0.99-0.4c0.22-0.16,0.33-0.44,0.33-0.83v-8.11c0-0.28-0.03-0.49-0.09-0.62s-0.17-0.24-0.33-0.31
			c-0.16-0.07-0.38-0.13-0.68-0.19c-0.34-0.07-0.51-0.19-0.51-0.35c0-0.08,0.04-0.14,0.13-0.18c0.09-0.04,0.2-0.05,0.33-0.05
			c0.29,0,0.56,0.01,0.79,0.02c0.23,0.01,0.46,0.02,0.67,0.04c0.21,0.01,0.45,0.02,0.7,0.02c0.27,0,0.53,0,0.77-0.01
			c0.25-0.01,0.5-0.01,0.76-0.03c0.26-0.01,0.53-0.02,0.83-0.02c0.14,0,0.25,0.01,0.33,0.04c0.08,0.03,0.11,0.09,0.11,0.17
			c0,0.09-0.04,0.17-0.12,0.22c-0.08,0.05-0.21,0.1-0.39,0.13c-0.45,0.11-0.8,0.22-1.06,0.34c-0.26,0.12-0.39,0.35-0.39,0.69v8.15
			c0,0.36,0.08,0.62,0.24,0.78c0.16,0.16,0.48,0.24,0.98,0.24H221c0.31,0,0.57-0.05,0.8-0.14c0.23-0.09,0.41-0.2,0.54-0.32
			c0.22-0.2,0.4-0.39,0.52-0.57c0.12-0.18,0.26-0.43,0.4-0.73c0.06-0.13,0.12-0.25,0.19-0.37c0.07-0.12,0.15-0.18,0.23-0.18
			c0.08,0,0.14,0.04,0.18,0.11c0.03,0.08,0.05,0.15,0.05,0.22c0,0.02-0.01,0.05-0.02,0.09c-0.01,0.04-0.02,0.07-0.02,0.11
			c-0.08,0.32-0.16,0.6-0.23,0.84c-0.07,0.25-0.13,0.48-0.17,0.7c-0.04,0.22-0.07,0.46-0.1,0.72c-0.01,0.08-0.04,0.16-0.07,0.22
			c-0.04,0.06-0.1,0.1-0.19,0.1c-0.46,0-0.94-0.01-1.46-0.02c-0.52-0.01-1.04-0.02-1.57-0.03c-0.53-0.01-1.05-0.01-1.56-0.03
			c-0.51-0.01-1-0.02-1.47-0.02c-0.28,0-0.6,0.01-0.94,0.02c-0.35,0.01-0.66,0.03-0.95,0.04C214.87,25.63,214.7,25.64,214.62,25.64z
			"/>
		
			<linearGradient id="SVGID_00000104671475320673469930000002496072245255446970_" gradientUnits="userSpaceOnUse" x1="225.9585" y1="19.9172" x2="238.4893" y2="19.9172">
			<stop  offset="0" style="stop-color:#FEBA00"/>
			<stop  offset="0.1391" style="stop-color:#FEA400"/>
			<stop  offset="0.3445" style="stop-color:#FF8900"/>
			<stop  offset="0.5546" style="stop-color:#FF7600"/>
			<stop  offset="0.7702" style="stop-color:#FF6B00"/>
			<stop  offset="1" style="stop-color:#FF6700"/>
		</linearGradient>
		<path style="fill:url(#SVGID_00000104671475320673469930000002496072245255446970_);" d="M232.17,25.8
			c-1.06,0-1.94-0.19-2.66-0.56c-0.72-0.38-1.26-0.91-1.62-1.59c-0.36-0.69-0.55-1.49-0.55-2.4v-5.26c0-0.39-0.08-0.69-0.24-0.91
			c-0.16-0.22-0.36-0.36-0.59-0.41c-0.38-0.11-0.56-0.23-0.56-0.39c0-0.08,0.05-0.14,0.14-0.18c0.09-0.04,0.21-0.05,0.35-0.05
			c0.3,0,0.62,0.01,0.93,0.04c0.32,0.02,0.64,0.04,0.97,0.04c0.29,0,0.6-0.01,0.92-0.03c0.32-0.02,0.6-0.03,0.84-0.03
			c0.15,0,0.27,0.02,0.36,0.05c0.09,0.04,0.13,0.09,0.13,0.18c0,0.09-0.06,0.17-0.19,0.22c-0.12,0.05-0.28,0.11-0.48,0.18
			c-0.15,0.06-0.31,0.2-0.47,0.41c-0.16,0.22-0.24,0.51-0.24,0.89v4.82c0,0.89,0.15,1.63,0.44,2.2c0.29,0.58,0.7,1,1.21,1.27
			c0.52,0.27,1.1,0.4,1.74,0.4c1.16,0,2.02-0.38,2.56-1.15c0.55-0.77,0.82-1.83,0.82-3.18c0-0.27,0-0.61,0-1.02
			c0-0.41,0-0.84-0.01-1.3c-0.01-0.46-0.01-0.89-0.03-1.3c-0.01-0.39-0.04-0.72-0.1-0.99c-0.05-0.28-0.14-0.51-0.26-0.7
			c-0.12-0.19-0.27-0.31-0.46-0.37c-0.12-0.05-0.25-0.1-0.4-0.16c-0.15-0.06-0.22-0.13-0.22-0.23c0-0.07,0.05-0.12,0.14-0.16
			c0.09-0.04,0.22-0.05,0.37-0.05c0.33,0,0.59,0.01,0.77,0.02c0.19,0.01,0.42,0.02,0.69,0.02c0.2,0,0.38-0.01,0.54-0.02
			c0.16-0.01,0.31-0.02,0.47-0.04c0.15-0.01,0.31-0.02,0.48-0.02c0.14,0,0.26,0.02,0.35,0.05c0.09,0.04,0.14,0.09,0.14,0.18
			c0,0.15-0.18,0.27-0.55,0.35c-0.34,0.08-0.58,0.24-0.71,0.47c-0.14,0.23-0.21,0.55-0.24,0.93c-0.06,0.96-0.09,1.84-0.11,2.65
			c-0.01,0.8-0.03,1.6-0.05,2.4c-0.01,0.92-0.23,1.73-0.64,2.45c-0.42,0.72-0.97,1.27-1.66,1.67
			C233.84,25.6,233.05,25.8,232.17,25.8z"/>
		
			<linearGradient id="SVGID_00000010278476995752630920000007640785945147129761_" gradientUnits="userSpaceOnUse" x1="240.6537" y1="19.4597" x2="252.1811" y2="19.4597">
			<stop  offset="0" style="stop-color:#FEBA00"/>
			<stop  offset="0.1391" style="stop-color:#FEA400"/>
			<stop  offset="0.3445" style="stop-color:#FF8900"/>
			<stop  offset="0.5546" style="stop-color:#FF7600"/>
			<stop  offset="0.7702" style="stop-color:#FF6B00"/>
			<stop  offset="1" style="stop-color:#FF6700"/>
		</linearGradient>
		<path style="fill:url(#SVGID_00000010278476995752630920000007640785945147129761_);" d="M243.94,25.62
			c-0.13,0-0.24-0.01-0.33-0.04c-0.09-0.03-0.14-0.09-0.14-0.17c0-0.08,0.05-0.15,0.14-0.2c0.09-0.05,0.22-0.1,0.39-0.13
			c0.45-0.08,0.78-0.22,1-0.4c0.22-0.19,0.33-0.49,0.33-0.9V16.8c0-0.52-0.01-0.91-0.04-1.17c-0.02-0.26-0.06-0.45-0.11-0.55
			c-0.05-0.1-0.11-0.16-0.19-0.18c-0.14-0.04-0.3-0.06-0.48-0.06c-0.18-0.01-0.38-0.01-0.62-0.01h-0.69c-0.31,0-0.61,0.07-0.91,0.2
			c-0.3,0.14-0.53,0.33-0.68,0.57c-0.05,0.07-0.11,0.17-0.2,0.29c-0.09,0.12-0.18,0.23-0.29,0.32s-0.21,0.13-0.32,0.13
			c-0.06,0-0.1-0.02-0.13-0.07c-0.03-0.05-0.04-0.11-0.04-0.18c0-0.13,0.03-0.26,0.11-0.39c0.19-0.38,0.32-0.7,0.4-0.99
			c0.08-0.28,0.15-0.62,0.19-1c0.02-0.19,0.07-0.31,0.14-0.35c0.07-0.05,0.14-0.07,0.21-0.07c0.06,0,0.14,0.07,0.24,0.22
			s0.18,0.27,0.24,0.36c0.09,0.11,0.27,0.19,0.53,0.25c0.26,0.06,0.5,0.09,0.72,0.09l6.35-0.02c0.36,0,0.67-0.02,0.91-0.07
			c0.24-0.05,0.44-0.11,0.59-0.18c0.16-0.08,0.29-0.17,0.39-0.27c0.09-0.1,0.22-0.15,0.37-0.15c0.05,0,0.08,0.04,0.11,0.11
			c0.02,0.08,0.04,0.16,0.04,0.25c0,0.05-0.01,0.12-0.02,0.21c-0.01,0.09-0.02,0.17-0.04,0.23c-0.05,0.22-0.09,0.4-0.13,0.53
			c-0.04,0.13-0.07,0.25-0.09,0.36c-0.02,0.11-0.03,0.26-0.03,0.43v0.25c0,0.14-0.02,0.28-0.07,0.4c-0.05,0.13-0.12,0.19-0.21,0.19
			s-0.17-0.06-0.23-0.19c-0.06-0.12-0.12-0.3-0.18-0.54c-0.07-0.31-0.23-0.54-0.47-0.7c-0.24-0.16-0.64-0.25-1.19-0.25h-1.48
			c-0.23,0-0.42,0.04-0.55,0.11c-0.13,0.08-0.21,0.25-0.26,0.53c-0.04,0.28-0.06,0.72-0.06,1.33v6.97c0,0.4,0.11,0.69,0.34,0.88
			c0.23,0.19,0.57,0.33,1.01,0.42c0.16,0.04,0.29,0.08,0.38,0.12c0.09,0.05,0.13,0.12,0.13,0.21c0,0.07-0.04,0.12-0.12,0.16
			c-0.08,0.04-0.19,0.05-0.33,0.05c-0.29,0-0.56-0.01-0.81-0.03c-0.25-0.02-0.49-0.03-0.72-0.04c-0.23-0.01-0.48-0.02-0.74-0.02
			c-0.28,0-0.55,0.01-0.79,0.02c-0.25,0.01-0.5,0.03-0.76,0.04C244.53,25.61,244.25,25.62,243.94,25.62z"/>
		
			<linearGradient id="SVGID_00000119801352247497961720000011441896637888584327_" gradientUnits="userSpaceOnUse" x1="254.0816" y1="19.8293" x2="259.5902" y2="19.8293">
			<stop  offset="0" style="stop-color:#FEBA00"/>
			<stop  offset="0.1391" style="stop-color:#FEA400"/>
			<stop  offset="0.3445" style="stop-color:#FF8900"/>
			<stop  offset="0.5546" style="stop-color:#FF7600"/>
			<stop  offset="0.7702" style="stop-color:#FF6B00"/>
			<stop  offset="1" style="stop-color:#FF6700"/>
		</linearGradient>
		<path style="fill:url(#SVGID_00000119801352247497961720000011441896637888584327_);" d="M254.54,25.62
			c-0.13,0-0.24-0.01-0.33-0.04c-0.09-0.03-0.13-0.09-0.13-0.17c0-0.15,0.17-0.26,0.51-0.33c0.45-0.08,0.77-0.21,0.99-0.39
			c0.21-0.18,0.32-0.46,0.32-0.86v-7.95c0-0.4-0.08-0.68-0.25-0.85c-0.16-0.17-0.47-0.3-0.92-0.4c-0.34-0.07-0.51-0.19-0.51-0.35
			c0-0.08,0.04-0.14,0.12-0.18c0.08-0.04,0.19-0.05,0.32-0.05c0.31,0,0.58,0.01,0.82,0.02c0.24,0.01,0.47,0.02,0.7,0.04
			c0.22,0.01,0.46,0.02,0.72,0.02c0.25,0,0.48,0,0.7-0.01c0.22-0.01,0.44-0.01,0.67-0.03c0.23-0.01,0.49-0.02,0.78-0.02
			c0.14,0,0.25,0.01,0.33,0.04c0.08,0.03,0.12,0.09,0.12,0.17c0,0.09-0.04,0.17-0.13,0.22c-0.09,0.05-0.21,0.1-0.38,0.13
			c-0.46,0.11-0.78,0.24-0.96,0.4c-0.18,0.16-0.27,0.45-0.27,0.84v7.95c0,0.39,0.11,0.67,0.33,0.84c0.22,0.18,0.55,0.31,0.99,0.4
			c0.18,0.04,0.31,0.08,0.39,0.12c0.08,0.05,0.12,0.12,0.12,0.21c0,0.07-0.04,0.12-0.11,0.16c-0.08,0.04-0.18,0.05-0.33,0.05
			c-0.29,0-0.56-0.01-0.81-0.03c-0.25-0.02-0.48-0.03-0.71-0.04c-0.23-0.01-0.47-0.02-0.73-0.02c-0.28,0-0.54,0.01-0.78,0.02
			c-0.24,0.01-0.49,0.03-0.75,0.04C255.11,25.61,254.83,25.62,254.54,25.62z"/>
		
			<linearGradient id="SVGID_00000010271066756456421220000012389322477892411800_" gradientUnits="userSpaceOnUse" x1="262.1594" y1="19.8293" x2="274.1972" y2="19.8293">
			<stop  offset="0" style="stop-color:#FEBA00"/>
			<stop  offset="0.1391" style="stop-color:#FEA400"/>
			<stop  offset="0.3445" style="stop-color:#FF8900"/>
			<stop  offset="0.5546" style="stop-color:#FF7600"/>
			<stop  offset="0.7702" style="stop-color:#FF6B00"/>
			<stop  offset="1" style="stop-color:#FF6700"/>
		</linearGradient>
		<path style="fill:url(#SVGID_00000010271066756456421220000012389322477892411800_);" d="M268.09,25.8
			c-0.79,0-1.53-0.14-2.24-0.41c-0.71-0.28-1.34-0.67-1.89-1.18c-0.55-0.51-0.99-1.12-1.31-1.83c-0.32-0.71-0.48-1.5-0.48-2.37
			c0-0.8,0.13-1.56,0.4-2.3c0.26-0.73,0.65-1.39,1.16-1.96c0.51-0.57,1.15-1.03,1.91-1.37c0.76-0.34,1.64-0.51,2.62-0.51
			c0.8,0,1.55,0.14,2.26,0.41c0.71,0.28,1.34,0.67,1.89,1.18c0.55,0.51,0.99,1.12,1.31,1.83c0.32,0.71,0.48,1.5,0.48,2.37
			c0,0.79-0.13,1.55-0.4,2.29c-0.26,0.74-0.65,1.4-1.16,1.97c-0.51,0.57-1.15,1.03-1.91,1.37C269.97,25.63,269.09,25.8,268.09,25.8z
			 M268.37,25.06c0.82,0,1.5-0.19,2.05-0.57c0.55-0.38,0.96-0.91,1.23-1.59c0.28-0.68,0.41-1.47,0.41-2.36
			c0-0.79-0.09-1.53-0.26-2.24c-0.17-0.7-0.43-1.33-0.77-1.89c-0.34-0.56-0.77-0.99-1.28-1.3c-0.52-0.31-1.12-0.47-1.81-0.47
			c-0.8,0-1.47,0.19-2.02,0.56c-0.55,0.38-0.96,0.9-1.23,1.57c-0.28,0.67-0.41,1.45-0.41,2.34c0,0.8,0.08,1.55,0.25,2.25
			c0.16,0.7,0.42,1.33,0.76,1.89c0.34,0.56,0.77,1,1.28,1.32C267.08,24.9,267.68,25.06,268.37,25.06z"/>
		
			<linearGradient id="SVGID_00000137832486458704114580000010294795715678745225_" gradientUnits="userSpaceOnUse" x1="276.6609" y1="19.9172" x2="290.3355" y2="19.9172">
			<stop  offset="0" style="stop-color:#FEBA00"/>
			<stop  offset="0.1391" style="stop-color:#FEA400"/>
			<stop  offset="0.3445" style="stop-color:#FF8900"/>
			<stop  offset="0.5546" style="stop-color:#FF7600"/>
			<stop  offset="0.7702" style="stop-color:#FF6B00"/>
			<stop  offset="1" style="stop-color:#FF6700"/>
		</linearGradient>
		<path style="fill:url(#SVGID_00000137832486458704114580000010294795715678745225_);" d="M288.29,25.87
			c-0.12,0-0.34-0.09-0.66-0.27c-0.32-0.18-0.64-0.48-0.94-0.89c-0.13-0.14-0.33-0.37-0.59-0.68c-0.26-0.31-0.57-0.67-0.93-1.08
			c-0.36-0.41-0.74-0.85-1.14-1.32c-0.4-0.47-0.81-0.94-1.21-1.4c-0.4-0.46-0.79-0.9-1.14-1.31c-0.36-0.41-0.67-0.77-0.95-1.09
			c-0.28-0.32-0.48-0.55-0.62-0.69c-0.06-0.08-0.11-0.15-0.17-0.19c-0.05-0.05-0.1-0.07-0.15-0.07c-0.05,0-0.08,0.04-0.11,0.13
			c-0.02,0.09-0.04,0.17-0.04,0.24c-0.01,0.56-0.02,1.21-0.02,1.95c0,0.74,0,1.5-0.01,2.28c-0.01,0.78-0.01,1.51-0.01,2.19
			c0,0.34,0.09,0.64,0.28,0.89c0.19,0.25,0.5,0.43,0.95,0.52c0.16,0.04,0.3,0.08,0.4,0.12c0.1,0.05,0.15,0.12,0.15,0.21
			c0,0.07-0.05,0.12-0.14,0.16c-0.09,0.04-0.21,0.05-0.35,0.05c-0.32,0-0.56-0.01-0.73-0.03c-0.17-0.02-0.33-0.03-0.47-0.04
			c-0.14-0.01-0.33-0.01-0.56-0.01c-0.22,0-0.41,0.01-0.57,0.02c-0.16,0.01-0.31,0.02-0.47,0.04c-0.15,0.01-0.34,0.02-0.56,0.02
			c-0.13,0-0.24-0.01-0.34-0.04c-0.1-0.03-0.15-0.09-0.15-0.17c0-0.08,0.05-0.15,0.14-0.2c0.09-0.05,0.23-0.1,0.4-0.15
			c0.32-0.09,0.55-0.27,0.7-0.52c0.15-0.25,0.24-0.55,0.26-0.91c0.05-0.45,0.1-1.03,0.15-1.76c0.05-0.73,0.1-1.54,0.13-2.45
			c0.04-0.9,0.05-1.84,0.05-2.8c0-0.62-0.16-1.07-0.48-1.34c-0.32-0.27-0.72-0.49-1.21-0.65c-0.06-0.02-0.16-0.07-0.31-0.14
			c-0.15-0.07-0.22-0.16-0.22-0.26c0-0.11,0.05-0.18,0.16-0.21c0.11-0.04,0.19-0.05,0.26-0.05c0.31,0.01,0.57,0.02,0.8,0.03
			c0.23,0.01,0.45,0.01,0.66,0.03s0.43,0.02,0.67,0.03c0.23,0.01,0.51,0.01,0.83,0.01c0.11,0,0.19,0.03,0.25,0.08
			s0.11,0.11,0.16,0.18c0.13,0.15,0.33,0.39,0.61,0.72c0.28,0.33,0.6,0.72,0.97,1.16c0.37,0.45,0.77,0.92,1.19,1.42
			c0.42,0.5,0.84,1,1.27,1.5c0.42,0.5,0.82,0.98,1.2,1.43c0.38,0.45,0.7,0.83,0.98,1.15c0.28,0.32,0.47,0.55,0.59,0.7
			c0.05,0.05,0.11,0.11,0.18,0.19c0.08,0.08,0.14,0.12,0.2,0.12c0.11,0,0.16-0.11,0.18-0.33c0-0.23,0-0.59,0-1.06
			c0-0.47,0-1.01,0.01-1.64c0.01-0.62,0.01-1.28,0.01-1.96c0-0.69-0.01-1.37-0.02-2.05c-0.01-0.26-0.13-0.48-0.37-0.66
			c-0.23-0.18-0.49-0.3-0.76-0.36c-0.16-0.02-0.32-0.06-0.46-0.12c-0.14-0.06-0.21-0.13-0.21-0.23c0-0.07,0.07-0.12,0.21-0.16
			c0.14-0.04,0.28-0.05,0.4-0.05c0.18,0,0.33,0,0.47,0c0.13,0,0.27,0,0.4,0s0.26,0,0.39,0c0.27,0,0.49,0,0.65-0.01
			c0.16-0.01,0.34-0.01,0.54-0.03c0.19-0.01,0.46-0.02,0.8-0.02c0.14,0,0.26,0.02,0.34,0.05c0.09,0.04,0.13,0.09,0.13,0.18
			c0,0.16-0.18,0.28-0.55,0.35c-0.42,0.08-0.71,0.19-0.86,0.33c-0.15,0.14-0.23,0.36-0.25,0.66c0,0.19-0.01,0.5-0.02,0.92
			c-0.01,0.43-0.02,0.93-0.03,1.5c-0.01,0.57-0.01,1.18-0.03,1.81c-0.01,0.63-0.02,1.26-0.02,1.87c0,0.61,0,1.16,0,1.65
			c0,0.28,0.01,0.55,0.04,0.82c0.02,0.26,0.04,0.49,0.06,0.69c0.02,0.19,0.03,0.34,0.03,0.43c0,0.22-0.04,0.37-0.12,0.45
			C288.51,25.83,288.41,25.87,288.29,25.87z"/>
		
			<linearGradient id="SVGID_00000106841192786057511620000000853725996646702230_" gradientUnits="userSpaceOnUse" x1="292.6935" y1="19.838" x2="299.7332" y2="19.838">
			<stop  offset="0" style="stop-color:#FEBA00"/>
			<stop  offset="0.1391" style="stop-color:#FEA400"/>
			<stop  offset="0.3445" style="stop-color:#FF8900"/>
			<stop  offset="0.5546" style="stop-color:#FF7600"/>
			<stop  offset="0.7702" style="stop-color:#FF6B00"/>
			<stop  offset="1" style="stop-color:#FF6700"/>
		</linearGradient>
		<path style="fill:url(#SVGID_00000106841192786057511620000000853725996646702230_);" d="M295.77,25.81
			c-0.49,0-0.96-0.07-1.39-0.2c-0.43-0.13-0.83-0.34-1.2-0.61c-0.05-0.05-0.1-0.1-0.15-0.17c-0.05-0.06-0.09-0.13-0.11-0.2
			c-0.08-0.27-0.14-0.61-0.17-1.01c-0.03-0.4-0.05-0.77-0.06-1.08c0-0.08,0.04-0.14,0.11-0.19c0.07-0.04,0.15-0.06,0.25-0.06
			c0.08,0,0.15,0.01,0.2,0.04c0.05,0.03,0.09,0.09,0.11,0.17c0.25,0.89,0.61,1.56,1.09,2c0.48,0.44,1,0.66,1.57,0.66
			c0.4,0,0.74-0.09,1.03-0.26c0.29-0.18,0.51-0.41,0.68-0.71c0.16-0.3,0.25-0.64,0.25-1.01c0-0.45-0.08-0.81-0.23-1.09
			c-0.15-0.28-0.38-0.53-0.67-0.76c-0.29-0.22-0.66-0.46-1.09-0.72c-0.47-0.28-0.93-0.57-1.38-0.88c-0.45-0.31-0.82-0.66-1.12-1.07
			c-0.29-0.41-0.44-0.92-0.44-1.51c0-0.63,0.15-1.19,0.45-1.68c0.3-0.49,0.74-0.87,1.31-1.16c0.57-0.29,1.27-0.43,2.08-0.43
			c0.42,0,0.81,0.04,1.15,0.13c0.35,0.09,0.62,0.18,0.84,0.27c0.11,0.04,0.19,0.09,0.26,0.18c0.06,0.08,0.11,0.18,0.15,0.3
			c0.06,0.25,0.12,0.53,0.19,0.86c0.07,0.33,0.11,0.66,0.11,1c0,0.13-0.09,0.19-0.28,0.19c-0.11,0-0.21-0.02-0.3-0.07
			c-0.09-0.05-0.15-0.11-0.18-0.18c-0.23-0.66-0.53-1.16-0.87-1.5c-0.35-0.34-0.78-0.51-1.31-0.51c-0.35,0-0.67,0.06-0.96,0.18
			c-0.29,0.12-0.52,0.32-0.69,0.6c-0.17,0.28-0.26,0.64-0.26,1.08c0,0.32,0.11,0.61,0.33,0.89c0.22,0.28,0.51,0.54,0.88,0.79
			c0.37,0.25,0.78,0.51,1.24,0.78c0.48,0.29,0.92,0.6,1.3,0.92c0.39,0.32,0.69,0.68,0.92,1.08c0.22,0.41,0.33,0.89,0.33,1.45
			c0,0.74-0.16,1.37-0.49,1.89c-0.33,0.52-0.79,0.92-1.38,1.19C297.27,25.68,296.57,25.81,295.77,25.81z"/>
	</g>
	<g>
		<path class="st20" d="M79.6,43.28l-0.47-1.34h-2.66L76,43.28h-1.15l2.27-6.16h1.36l2.26,6.16H79.6z M76.81,41h1.99L77.8,38.2
			L76.81,41z"/>
		<path class="st20" d="M85.26,42.29h2v0.99h-3.12v-6.16h1.12V42.29z"/>
		<path class="st20" d="M91.8,42.29h2v0.99h-3.12v-6.16h1.12V42.29z"/>
		<path class="st20" d="M105.37,38.11h-2.35v1.6h2.08v0.98h-2.08v1.59h2.35v0.99h-3.48v-6.16h3.48V38.11z"/>
		<path class="st20" d="M113,37.13h1.18l-2.27,6.16h-1.21l-2.26-6.16h1.18l1.69,4.83L113,37.13z"/>
		<path class="st20" d="M121.06,38.11h-2.35v1.6h2.08v0.98h-2.08v1.59h2.35v0.99h-3.48v-6.16h3.48V38.11z"/>
		<path class="st20" d="M128.99,37.13h1.11v6.16h-1.26l-2.92-4.6v4.6h-1.11v-6.16h1.25l2.93,4.57V37.13z"/>
		<path class="st20" d="M137.64,37.13v0.99h-1.5v5.17h-1.1v-5.17h-1.51v-0.99H137.64z"/>
		<path class="st20" d="M147.72,43.37c-0.66,0-1.22-0.15-1.67-0.46c-0.45-0.31-0.72-0.73-0.82-1.28l1.15-0.27
			c0.05,0.34,0.2,0.61,0.45,0.8c0.25,0.19,0.56,0.28,0.93,0.28c0.31,0,0.57-0.07,0.77-0.21c0.2-0.14,0.3-0.35,0.3-0.64
			c0-0.09-0.01-0.17-0.05-0.24c-0.03-0.08-0.07-0.14-0.11-0.2c-0.04-0.06-0.11-0.11-0.19-0.16c-0.08-0.05-0.16-0.1-0.22-0.13
			c-0.07-0.04-0.16-0.07-0.28-0.11c-0.12-0.04-0.22-0.07-0.3-0.1c-0.08-0.02-0.19-0.06-0.32-0.1c-0.03-0.01-0.05-0.01-0.06-0.02
			c-0.16-0.05-0.3-0.09-0.4-0.12c-0.1-0.03-0.23-0.08-0.37-0.14s-0.27-0.12-0.36-0.18c-0.09-0.06-0.19-0.13-0.3-0.22
			s-0.19-0.18-0.24-0.28c-0.06-0.1-0.11-0.22-0.15-0.35s-0.06-0.28-0.06-0.44c0-0.37,0.1-0.69,0.29-0.96
			c0.19-0.27,0.44-0.47,0.76-0.6c0.32-0.13,0.68-0.2,1.08-0.2c0.28,0,0.54,0.03,0.79,0.09c0.25,0.06,0.48,0.15,0.7,0.27
			c0.22,0.12,0.4,0.29,0.55,0.49c0.15,0.21,0.26,0.45,0.32,0.72l-1.07,0.27c-0.06-0.31-0.2-0.54-0.42-0.69
			c-0.22-0.15-0.49-0.23-0.81-0.23c-0.3,0-0.56,0.07-0.76,0.2c-0.2,0.14-0.31,0.34-0.31,0.62c0,0.1,0.02,0.2,0.07,0.28
			c0.05,0.08,0.11,0.15,0.19,0.21c0.08,0.06,0.18,0.11,0.3,0.16c0.12,0.05,0.24,0.1,0.36,0.13c0.11,0.04,0.25,0.08,0.42,0.12
			c0.01,0,0.03,0.01,0.03,0.01c0.25,0.07,0.45,0.13,0.59,0.18c0.14,0.05,0.32,0.13,0.54,0.23c0.21,0.11,0.38,0.22,0.49,0.33
			c0.12,0.12,0.22,0.27,0.31,0.46c0.09,0.19,0.13,0.4,0.13,0.64c0,0.31-0.06,0.58-0.18,0.82s-0.29,0.43-0.5,0.57
			c-0.21,0.14-0.45,0.25-0.72,0.32C148.31,43.33,148.02,43.37,147.72,43.37z"/>
		<path class="st20" d="M156.33,43.37c-0.6,0-1.13-0.13-1.6-0.38s-0.84-0.62-1.11-1.11c-0.27-0.48-0.41-1.04-0.41-1.68
			c0-0.63,0.14-1.19,0.41-1.67c0.27-0.48,0.64-0.85,1.11-1.1c0.47-0.25,1-0.38,1.6-0.38c0.59,0,1.12,0.13,1.59,0.38
			c0.47,0.25,0.84,0.62,1.11,1.1c0.27,0.48,0.41,1.04,0.41,1.67c0,0.63-0.14,1.19-0.41,1.68c-0.27,0.48-0.64,0.85-1.11,1.11
			S156.92,43.37,156.33,43.37z M154.89,41.76c0.38,0.38,0.86,0.58,1.44,0.58s1.06-0.19,1.44-0.58c0.38-0.38,0.57-0.9,0.57-1.56
			c0-0.65-0.19-1.17-0.57-1.55c-0.38-0.38-0.86-0.58-1.44-0.58c-0.28,0-0.55,0.05-0.79,0.15c-0.24,0.1-0.46,0.24-0.64,0.41
			c-0.18,0.18-0.32,0.4-0.43,0.67c-0.1,0.27-0.15,0.57-0.15,0.89C154.32,40.86,154.51,41.38,154.89,41.76z"/>
		<path class="st20" d="M164.22,42.29h2v0.99h-3.12v-6.16h1.12V42.29z"/>
		<path class="st20" d="M171.87,43.37c-0.34,0-0.64-0.05-0.93-0.14c-0.28-0.09-0.53-0.23-0.75-0.4c-0.21-0.18-0.38-0.41-0.5-0.69
			c-0.12-0.29-0.18-0.61-0.18-0.97v-4.04h1.12v3.89c0,0.46,0.11,0.8,0.34,1.02c0.23,0.22,0.53,0.34,0.9,0.34
			c0.37,0,0.67-0.11,0.9-0.34c0.23-0.22,0.35-0.56,0.35-1.02v-3.89h1.11v4.04c0,0.36-0.06,0.69-0.18,0.97
			c-0.12,0.28-0.29,0.51-0.5,0.69c-0.21,0.18-0.46,0.31-0.75,0.4C172.52,43.32,172.21,43.37,171.87,43.37z"/>
		<path class="st20" d="M181.64,37.13v0.99h-1.5v5.17h-1.1v-5.17h-1.51v-0.99H181.64z"/>
		<path class="st20" d="M185.06,43.28v-6.16h1.12v6.16H185.06z"/>
		<path class="st20" d="M192.95,43.37c-0.6,0-1.13-0.13-1.6-0.38c-0.47-0.25-0.84-0.62-1.11-1.11c-0.27-0.48-0.41-1.04-0.41-1.68
			c0-0.63,0.14-1.19,0.41-1.67c0.27-0.48,0.64-0.85,1.11-1.1c0.47-0.25,1-0.38,1.6-0.38c0.59,0,1.12,0.13,1.59,0.38
			c0.47,0.25,0.84,0.62,1.11,1.1c0.27,0.48,0.41,1.04,0.41,1.67c0,0.63-0.14,1.19-0.41,1.68c-0.27,0.48-0.64,0.85-1.11,1.11
			C194.08,43.24,193.54,43.37,192.95,43.37z M191.51,41.76c0.38,0.38,0.86,0.58,1.44,0.58s1.06-0.19,1.44-0.58
			c0.38-0.38,0.57-0.9,0.57-1.56c0-0.65-0.19-1.17-0.57-1.55c-0.38-0.38-0.86-0.58-1.44-0.58c-0.28,0-0.55,0.05-0.79,0.15
			c-0.24,0.1-0.46,0.24-0.64,0.41c-0.18,0.18-0.32,0.4-0.43,0.67c-0.1,0.27-0.15,0.57-0.15,0.89
			C190.94,40.86,191.13,41.38,191.51,41.76z"/>
		<path class="st20" d="M203.9,37.13h1.11v6.16h-1.26l-2.92-4.6v4.6h-1.11v-6.16h1.25l2.93,4.57V37.13z"/>
		<path class="st20" d="M211.09,43.37c-0.66,0-1.22-0.15-1.67-0.46c-0.45-0.31-0.72-0.73-0.82-1.28l1.15-0.27
			c0.05,0.34,0.2,0.61,0.45,0.8c0.25,0.19,0.56,0.28,0.93,0.28c0.31,0,0.57-0.07,0.77-0.21c0.2-0.14,0.3-0.35,0.3-0.64
			c0-0.09-0.01-0.17-0.05-0.24c-0.03-0.08-0.07-0.14-0.11-0.2c-0.04-0.06-0.11-0.11-0.19-0.16c-0.08-0.05-0.16-0.1-0.22-0.13
			c-0.07-0.04-0.16-0.07-0.28-0.11c-0.12-0.04-0.22-0.07-0.3-0.1c-0.08-0.02-0.19-0.06-0.32-0.1c-0.03-0.01-0.05-0.01-0.06-0.02
			c-0.16-0.05-0.3-0.09-0.4-0.12c-0.1-0.03-0.23-0.08-0.37-0.14s-0.27-0.12-0.36-0.18c-0.09-0.06-0.19-0.13-0.3-0.22
			s-0.19-0.18-0.24-0.28c-0.06-0.1-0.11-0.22-0.15-0.35s-0.06-0.28-0.06-0.44c0-0.37,0.1-0.69,0.29-0.96
			c0.19-0.27,0.44-0.47,0.76-0.6c0.32-0.13,0.68-0.2,1.08-0.2c0.28,0,0.54,0.03,0.79,0.09c0.25,0.06,0.48,0.15,0.7,0.27
			c0.22,0.12,0.4,0.29,0.55,0.49c0.15,0.21,0.26,0.45,0.32,0.72l-1.07,0.27c-0.06-0.31-0.2-0.54-0.42-0.69
			c-0.22-0.15-0.49-0.23-0.81-0.23c-0.3,0-0.56,0.07-0.76,0.2c-0.2,0.14-0.31,0.34-0.31,0.62c0,0.1,0.02,0.2,0.07,0.28
			c0.05,0.08,0.11,0.15,0.19,0.21c0.08,0.06,0.18,0.11,0.3,0.16c0.12,0.05,0.24,0.1,0.36,0.13c0.11,0.04,0.25,0.08,0.42,0.12
			c0.01,0,0.03,0.01,0.03,0.01c0.25,0.07,0.45,0.13,0.59,0.18c0.14,0.05,0.32,0.13,0.54,0.23c0.21,0.11,0.38,0.22,0.49,0.33
			c0.12,0.12,0.22,0.27,0.31,0.46c0.09,0.19,0.13,0.4,0.13,0.64c0,0.31-0.06,0.58-0.18,0.82c-0.12,0.24-0.29,0.43-0.5,0.57
			c-0.21,0.14-0.45,0.25-0.72,0.32C211.68,43.33,211.4,43.37,211.09,43.37z"/>
		<path class="st20" d="M221.66,43.28v-6.16h1.12v6.16H221.66z"/>
		<path class="st20" d="M231.04,37.13h1.11v6.16h-1.26l-2.92-4.6v4.6h-1.11v-6.16h1.25l2.93,4.57V37.13z"/>
		<path class="st20" d="M243.59,43.37c-0.6,0-1.13-0.13-1.6-0.38s-0.84-0.62-1.11-1.11c-0.27-0.48-0.41-1.04-0.41-1.68
			c0-0.63,0.14-1.19,0.41-1.67c0.27-0.48,0.64-0.85,1.11-1.1c0.47-0.25,1-0.38,1.6-0.38c0.59,0,1.12,0.13,1.59,0.38
			c0.47,0.25,0.84,0.62,1.11,1.1c0.27,0.48,0.41,1.04,0.41,1.67c0,0.63-0.14,1.19-0.41,1.68c-0.27,0.48-0.64,0.85-1.11,1.11
			C244.71,43.24,244.18,43.37,243.59,43.37z M242.15,41.76c0.38,0.38,0.86,0.58,1.44,0.58s1.06-0.19,1.44-0.58
			c0.38-0.38,0.57-0.9,0.57-1.56c0-0.65-0.19-1.17-0.57-1.55c-0.38-0.38-0.86-0.58-1.44-0.58c-0.28,0-0.55,0.05-0.79,0.15
			c-0.24,0.1-0.46,0.24-0.64,0.41c-0.18,0.18-0.32,0.4-0.43,0.67c-0.1,0.27-0.15,0.57-0.15,0.89
			C241.58,40.86,241.77,41.38,242.15,41.76z"/>
		<path class="st20" d="M254.54,37.13h1.11v6.16h-1.26l-2.92-4.6v4.6h-1.11v-6.16h1.25l2.93,4.57V37.13z"/>
		<path class="st20" d="M263.21,38.11h-2.35v1.6h2.08v0.98h-2.08v1.59h2.35v0.99h-3.48v-6.16h3.48V38.11z"/>
		<path class="st20" d="M273.62,43.37c-0.66,0-1.22-0.15-1.67-0.46c-0.45-0.31-0.72-0.73-0.82-1.28l1.15-0.27
			c0.05,0.34,0.2,0.61,0.45,0.8c0.25,0.19,0.56,0.28,0.93,0.28c0.31,0,0.57-0.07,0.77-0.21c0.2-0.14,0.3-0.35,0.3-0.64
			c0-0.09-0.01-0.17-0.05-0.24c-0.03-0.08-0.07-0.14-0.11-0.2c-0.04-0.06-0.11-0.11-0.19-0.16c-0.08-0.05-0.16-0.1-0.22-0.13
			c-0.07-0.04-0.16-0.07-0.28-0.11c-0.12-0.04-0.22-0.07-0.3-0.1c-0.08-0.02-0.19-0.06-0.32-0.1c-0.03-0.01-0.05-0.01-0.06-0.02
			c-0.16-0.05-0.3-0.09-0.4-0.12c-0.1-0.03-0.23-0.08-0.37-0.14s-0.27-0.12-0.36-0.18c-0.09-0.06-0.19-0.13-0.3-0.22
			s-0.19-0.18-0.24-0.28c-0.06-0.1-0.11-0.22-0.15-0.35s-0.06-0.28-0.06-0.44c0-0.37,0.1-0.69,0.29-0.96
			c0.19-0.27,0.44-0.47,0.76-0.6c0.32-0.13,0.68-0.2,1.08-0.2c0.28,0,0.54,0.03,0.79,0.09c0.25,0.06,0.48,0.15,0.7,0.27
			c0.22,0.12,0.4,0.29,0.55,0.49c0.15,0.21,0.26,0.45,0.32,0.72l-1.07,0.27c-0.06-0.31-0.2-0.54-0.42-0.69
			c-0.22-0.15-0.49-0.23-0.81-0.23c-0.3,0-0.56,0.07-0.76,0.2c-0.2,0.14-0.31,0.34-0.31,0.62c0,0.1,0.02,0.2,0.07,0.28
			c0.05,0.08,0.11,0.15,0.19,0.21c0.08,0.06,0.18,0.11,0.3,0.16c0.12,0.05,0.24,0.1,0.36,0.13c0.11,0.04,0.25,0.08,0.42,0.12
			c0.01,0,0.03,0.01,0.03,0.01c0.25,0.07,0.45,0.13,0.59,0.18c0.14,0.05,0.32,0.13,0.54,0.23c0.21,0.11,0.38,0.22,0.49,0.33
			c0.12,0.12,0.22,0.27,0.31,0.46c0.09,0.19,0.13,0.4,0.13,0.64c0,0.31-0.06,0.58-0.18,0.82s-0.29,0.43-0.51,0.57
			s-0.45,0.25-0.72,0.32C274.22,43.33,273.93,43.37,273.62,43.37z"/>
		<path class="st20" d="M282.96,37.13v0.99h-1.5v5.17h-1.1v-5.17h-1.51v-0.99H282.96z"/>
		<path class="st20" d="M288.82,43.37c-0.6,0-1.13-0.13-1.6-0.38s-0.84-0.62-1.11-1.11c-0.27-0.48-0.41-1.04-0.41-1.68
			c0-0.63,0.14-1.19,0.41-1.67c0.27-0.48,0.64-0.85,1.11-1.1c0.47-0.25,1-0.38,1.6-0.38c0.59,0,1.12,0.13,1.59,0.38
			c0.47,0.25,0.84,0.62,1.11,1.1c0.27,0.48,0.41,1.04,0.41,1.67c0,0.63-0.14,1.19-0.41,1.68c-0.27,0.48-0.64,0.85-1.11,1.11
			C289.95,43.24,289.42,43.37,288.82,43.37z M287.38,41.76c0.38,0.38,0.86,0.58,1.44,0.58s1.06-0.19,1.44-0.58s0.57-0.9,0.57-1.56
			c0-0.65-0.19-1.17-0.57-1.55c-0.38-0.38-0.86-0.58-1.44-0.58c-0.28,0-0.55,0.05-0.79,0.15c-0.24,0.1-0.46,0.24-0.64,0.41
			s-0.32,0.4-0.43,0.67c-0.1,0.27-0.15,0.57-0.15,0.89C286.81,40.86,287,41.38,287.38,41.76z"/>
		<path class="st20" d="M298.08,37.13c0.57,0,1.04,0.19,1.39,0.57s0.53,0.84,0.53,1.39c0,0.56-0.18,1.02-0.53,1.38
			c-0.35,0.36-0.81,0.55-1.39,0.55h-1.37v2.27h-1.12v-6.16H298.08z M297.9,40.07c0.33,0,0.58-0.09,0.75-0.27
			c0.17-0.18,0.26-0.43,0.26-0.73c0-0.3-0.09-0.54-0.26-0.73c-0.17-0.18-0.43-0.27-0.75-0.27h-1.19v2.01H297.9z"/>
	</g>
</g>
</svg>
